#define desk_toggled_width 14
#define desk_toggled_height 14
static unsigned char desk_toggled_bits[] = {
   0x00, 0x00, 0x00, 0x00, 0x7c, 0x00, 0xf4, 0x00, 0xfc, 0x01, 0xfc, 0x03,
   0xfc, 0x07, 0xf8, 0x0f, 0xf0, 0x07, 0xe0, 0x03, 0xc0, 0x01, 0x80, 0x00,
   0x00, 0x00, 0x00, 0x00 };
