#define max_disabled_width 14
#define max_disabled_height 14
static unsigned char max_disabled_bits[] = {
   0x00, 0x00, 0x00, 0x00, 0xe0, 0x01, 0xf8, 0x07, 0xf8, 0x07, 0xfc, 0x0f,
   0xfc, 0x0f, 0xfc, 0x0f, 0xfc, 0x0f, 0xf8, 0x07, 0xf8, 0x07, 0xe0, 0x01,
   0x00, 0x00, 0x00, 0x00 };
